PathFileType	4	(X/Y/Z)	Patient4_TMGait_0pt3_01_right_30.trc.trc
DataRate	CameraRate	NumFrames	NumMarkers	Units	OrigDataRate	OrigDataStartFrame	OrigNumFrames
48.780487804878	48.780487804878	4	33	mm	48.780487804878	71	       141
Frame#	Time	Sacral			L.Shoulder			Chest			R.Shoulder			Neck			R.ASIS			L.ASIS			R.Thigh.Superior			R.Thigh.Lateral			R.Thigh.Inferior			R.Patella			L.Thigh.Superior			L.Thigh.Lateral			L.Thigh.Inferior			L.Patella			L.Shank.Superior			L.Shank.Lateral			L.Shank.Inferior			R.Shank.Superior			R.Shank.Lateral			R.Shank.Inferior			R.Heel			R.Midfoot.Superior			R.Midfoot.Lateral			R.Toe			L.Heel			L.Midfoot.Lateral			L.Midfoot.Superior			L.Toe			L.Elbow			L.Wrist			R.Elbow			R.Wrist			
		X1	Y1	Z1	X2	Y2	Z2	X3	Y3	Z3	X4	Y4	Z4	X5	Y5	Z5	X6	Y6	Z6	X7	Y7	Z7	X8	Y8	Z8	X9	Y9	Z9	X10	Y10	Z10	X11	Y11	Z11	X12	Y12	Z12	X13	Y13	Z13	X14	Y14	Z14	X15	Y15	Z15	X16	Y16	Z16	X17	Y17	Z17	X18	Y18	Z18	X19	Y19	Z19	X20	Y20	Z20	X21	Y21	Z21	X22	Y22	Z22	X23	Y23	Z23	X24	Y24	Z24	X25	Y25	Z25	X26	Y26	Z26	X27	Y27	Z27	X28	Y28	Z28	X29	Y29	Z29	X30	Y30	Z30	X31	Y31	Z31	X32	Y32	Z32	X33	Y33	Z33	

71	57.205000000000	685.669213217141	996.538898524082	577.801806806461	821.034298715603	1417.495714299638	354.111062831566	958.572915156667	1350.718453397248	488.417627958227	918.839908657811	1434.122423017094	672.268603918285	842.963665521678	1482.790729855649	507.123189224282	928.799441334206	926.845877035979	652.970771375896	870.796434333501	952.561701837985	384.841854774352	931.034372794427	716.016700871172	616.664090906488	836.788837624391	612.895320475531	679.024400062458	895.626155178593	555.193116279396	591.412533858138	878.866903013110	464.068759823999	594.788755806654	951.241025338447	763.848595835030	409.254202485434	891.147603061852	635.743427745242	338.295647417129	994.157656499742	575.418625175401	397.479800188735	1015.934534792484	509.997787811640	395.494322400109	999.232735711875	438.017679897388	382.765721215586	931.129538677486	311.098062327968	327.242349645348	1015.121651789782	208.663009865808	381.393899582679	830.406581528680	382.174157248185	599.634241944412	739.174059152317	292.375673320469	658.392825786699	758.644418283116	194.856740105733	591.002980571802	597.543166110459	44.532485774476	551.195952704196	767.212520125757	94.541565612683	596.878290758144	675.101870353673	36.942444894688	631.151909720919	883.611964852959	40.527003144998	636.352760361495	922.847840991033	37.315323182484	414.464358795154	998.014725200143	38.674278713250	335.144223334068	1074.483586152668	108.671159538861	360.108431344729	1205.503107136042	69.396744272677	334.497126394138	655.444600687057	1104.677150786077	282.998477425907	616.480236868459	847.287464632327	319.194088270851	1115.243641369827	1166.117120449173	786.997268719439	1346.617554761128	1230.334726146439	698.341164755537	
72	57.225500000000	687.172234612315	995.455253652916	575.427079034505	821.228187643540	1415.800474019584	349.898812767673	959.623358946185	1349.319853639927	483.548656491918	920.786538832663	1433.097322533409	667.377918854395	843.903142227033	1481.449300664503	502.585865730579	930.863999891891	925.638831782134	649.537585051157	871.210057204081	950.980570162723	381.713425488317	931.581173342115	714.461861395951	613.783841593511	836.552292914891	612.034016134951	676.667758103387	894.400100146897	553.699185941139	589.073866276304	876.516817977351	462.617810196480	592.626307991428	952.110111428803	762.289307409025	405.982504948636	890.384542566852	633.940518643043	336.496852112652	994.168451773732	574.020984008451	394.471671839788	1014.684015857223	507.908874069213	393.184835190031	998.005783208381	435.635952133680	380.770446826597	928.635697645523	309.151475557301	326.157406126376	1011.646671157376	206.368637049024	380.707877440801	827.278966488789	381.158640975614	598.010531663843	735.318430459132	292.442439149272	657.504067596537	753.633711000841	194.559847492224	590.454084440736	591.408872498019	44.939964558321	551.276872040940	761.304704728163	94.752335438456	597.007311744261	669.003964338293	37.105581676448	631.196330690994	877.507884647475	40.396296898167	636.353350944364	917.098430553934	37.182233802822	414.988528808704	991.622893072336	37.578795969605	334.944982563368	1069.609993253603	105.824568627165	359.793369037741	1199.776205439886	64.148506700197	332.961653062193	657.166013884193	1101.907420875293	280.848213437440	618.603088789355	844.444157246594	317.835530240501	1121.130731974501	1168.576910456626	780.861433831796	1350.166073412790	1238.476653448720	690.595284052475	
73	57.246000000000	688.818417504994	994.575792123555	572.780407482166	821.558793272661	1414.276551727726	345.534497712529	960.796408082290	1348.127416823147	478.538808756055	922.830419554507	1432.236821651475	662.373039517331	844.953639202716	1480.283918330801	497.879334719137	933.001832263964	924.593786370905	645.857842907226	871.870765875426	949.666121559162	378.344303540595	932.272713061037	713.033868396677	610.758736050807	836.498549680717	611.301522471609	674.162895472431	893.435555276692	552.330208113325	586.617327339935	874.493047742675	461.254428967480	590.393932963059	953.552238689833	761.376767835263	402.978349117103	890.881472730480	632.697422488745	334.684881384991	995.259701493234	573.183325136110	391.729605469325	1014.574113509290	506.222655250427	391.091019010359	997.684167227935	433.546041941043	378.986441875575	926.760971216598	307.744224874597	324.985652848046	1008.162038286054	204.279786552941	380.179160574821	824.383000049905	380.267255615599	596.327827632677	731.649406442912	292.727758503216	656.591352557953	748.745611406461	194.437196519443	589.915579955283	585.324855371547	45.660365564649	551.414042527548	755.456079690919	94.977116160049	597.108084841270	662.962738386546	37.431982809109	631.270087881515	871.447005297229	40.196158293218	636.365019074937	910.722419887645	37.212578990408	415.423237397953	984.736201536319	36.712246927970	334.786076096153	1064.183534806790	103.263735551023	359.668579428794	1193.559308155039	59.301513065658	331.804972838953	659.677854982319	1098.878224765662	278.316506866661	621.873191761260	841.320441614325	315.711878463848	1126.304455794327	1170.662306208272	774.897358318231	1353.410586511630	1244.876979425012	683.286213618218	
74	57.266500000000	690.583186213622	994.020541763008	569.835386250224	822.045738739763	1413.049604369922	341.071093459163	962.101259731998	1347.233119538041	473.439025504838	924.983537289454	1431.636667706596	657.303047961598	846.124001804132	1479.393708378947	493.072302157739	935.136231291555	923.792135793806	641.957986019317	872.796822838063	948.705549321890	374.744728769743	932.959862304435	711.805854108595	607.635629575884	836.455317597950	610.803405217228	671.563386346922	892.576970689846	551.169833209323	584.113167768110	872.643587277447	460.076570829872	588.175376195398	955.450855181377	761.087291996779	400.236766770243	892.438655835681	632.019441845115	332.804161910432	997.166118041741	572.828459217432	389.249358279278	1015.380816204768	504.948035221994	389.210845495321	998.075702494557	431.802374396808	377.413383071131	925.463273121242	306.860521455981	323.724808586689	1004.742564788990	202.477477471856	379.794095022525	821.609537015027	379.595397892968	594.652148722129	728.077629494408	293.299076529046	655.683815732414	743.955215538996	194.559468983589	589.419361970124	579.304782675214	46.763744599676	551.614421013363	749.676429255745	95.213567077148	597.170773498506	656.985611650465	37.964592821890	631.378165602597	865.430979612887	39.923728327155	636.387198272044	904.057781143155	37.345892553328	415.729949384456	977.713062864654	36.090665708993	334.657107524193	1058.440895797234	101.129391268209	359.710673215259	1187.149366390016	55.182537629265	331.052756954893	662.758544824481	1095.888545249240	275.389914388535	626.097531353405	838.201975745351	312.820650504755	1130.896013408908	1172.516774417118	769.118430823465	1356.555036941487	1249.720485496222	676.412462319315	
